<?xml version="1.0" encoding="utf-8"?>
<!-- Generator: Adobe Illustrator 22.0.1, SVG Export Plug-In . SVG Version: 6.00 Build 0)  -->
<svg version="1.1" id="Capa_1" xmlns="http://www.w3.org/2000/svg" xmlns:xlink="http://www.w3.org/1999/xlink" x="0px" y="0px"
	 viewBox="0 0 512 512" style="enable-background:new 0 0 512 512;" xml:space="preserve">
<style type="text/css">
	.st0{fill:#EC5469;}
	.st1{fill:#50BB82;}
	.st2{fill:#FFC243;}
	.st3{fill:#FEA610;}
	.st4{fill:#2E9359;}
	.st5{fill:#E5374E;}
</style>
<g>
	<g>
		<path class="st0" d="M98.5,341.4v-31.5c0-5.4-4.4-9.9-9.9-9.9H50.3c-5.4,0-9.9,4.4-9.9,9.9v31.5L73,361L98.5,341.4z"/>
		<path class="st1" d="M413.5,212l29,20.5l29-20.5v-31.1c0-5.6-4.6-10.2-10.2-10.2h-37.6c-5.6,0-10.2,4.6-10.2,10.2L413.5,212z"/>
		<path class="st2" d="M267.2,82.6l29,22.4l29-22.4V51.5c0-5.6-4.6-10.2-10.2-10.2h-37.6c-5.6,0-10.2,4.6-10.2,10.2V82.6z"/>
		<path class="st2" d="M211.9,82.6V51.6c0-5.7-4.6-10.3-10.3-10.3h-37.5c-5.7,0-10.3,4.6-10.3,10.3v31.1l29,17.9L211.9,82.6z"/>
		<path class="st2" d="M98.5,82.6V51.2c0-5.5-4.5-9.9-9.9-9.9H50.3c-5.4,0-9.9,4.5-9.9,9.9v31.4l29,28.9L98.5,82.6z"/>
		<path class="st2" d="M7.5,97.6V197c0,8.2,6.7,15,15,15h146.3h174.4c8.2,0,15-6.7,15-15V97.6c0-8.2-6.7-15-15-15h-17.9h-58.1h-55.3
			h-58.1H98.5H40.4H22.5C14.2,82.6,7.5,89.4,7.5,97.6L7.5,97.6z"/>
		<path class="st1" d="M168.8,212c-8.2,0-15,6.7-15,15v99.4c0,8.2,6.7,15,15,15h174.4h146.3c8.2,0,15-6.7,15-15V227
			c0-8.2-6.7-15-15-15h-17.9h-58.1h-70.3H168.8z"/>
		<path class="st0" d="M343.2,341.4H168.8H98.5H40.4H22.5c-8.2,0-15,6.7-15,15v99.4c0,8.3,6.7,15,15,15h320.7c8.2,0,15-6.7,15-15
			v-99.4C358.2,348.1,351.4,341.4,343.2,341.4z"/>
		<path class="st3" d="M285.8,212h57.3c8.2,0,15-6.7,15-15V97.6c0-8.2-6.7-15-15-15h-17.9h-39.4c8.2,0,15,6.7,15,15V197
			C300.8,205.2,294.1,212,285.8,212z"/>
		<path class="st4" d="M447.2,227v99.4c0,8.2-6.7,15-15,15h57.3c8.2,0,15-6.7,15-15V227c0-8.2-6.7-15-15-15h-17.9h-39.4
			C440.4,212,447.2,218.7,447.2,227z"/>
		<path class="st5" d="M358.2,356.3c0-8.2-6.7-15-15-15h-57.3c8.2,0,15,6.7,15,15v99.4c0,8.3-6.7,15-15,15h57.3c8.2,0,15-6.7,15-15
			V356.3z"/>
		<path class="st3" d="M77.9,51.2v31.4h20.6V51.2c0-5.5-4.5-9.9-9.9-9.9H68C73.5,41.3,77.9,45.7,77.9,51.2z"/>
		<path class="st3" d="M191.3,51.6v31.1h20.6V51.6c0-5.7-4.6-10.3-10.3-10.3H181C186.7,41.3,191.3,45.9,191.3,51.6z"/>
		<path class="st3" d="M304.7,51.5v31.1h20.5V51.5c0-5.6-4.6-10.2-10.2-10.2h-20.5C300.1,41.3,304.7,45.9,304.7,51.5z"/>
		<path class="st4" d="M451,180.9V212h20.6v-31.1c0-5.6-4.6-10.2-10.2-10.2h-20.6C446.4,170.6,451,175.2,451,180.9z"/>
		<path class="st5" d="M98.5,341.4v-31.5c0-5.4-4.4-9.9-9.9-9.9H68.1c5.4,0,9.9,4.4,9.9,9.9v31.5H98.5z"/>
	</g>
	<path d="M489.5,204.5h-10.4v-23.6c0-9.8-8-17.7-17.7-17.7h-37.6c-9.8,0-17.7,8-17.7,17.7v23.6h-41.6c0.8-2.3,1.3-4.9,1.3-7.5V97.6
		c0-12.4-10.1-22.5-22.5-22.5h-10.4V51.5c0-9.8-8-17.7-17.7-17.7h-37.6c-9.8,0-17.7,8-17.7,17.7v23.6h-40.3V51.6
		c0-9.8-8-17.8-17.8-17.8h-37.5c-9.8,0-17.8,8-17.8,17.8v23.6H106V51.2c0-9.6-7.8-17.4-17.4-17.4H50.3c-9.6,0-17.4,7.8-17.4,17.4
		v23.9H22.5C10.1,75.1,0,85.2,0,97.6V197c0,12.4,10.1,22.5,22.5,22.5h39.9c4.1,0,7.5-3.4,7.5-7.5s-3.4-7.5-7.5-7.5H22.5
		c-4.1,0-7.5-3.4-7.5-7.5V97.6c0-4.1,3.4-7.5,7.5-7.5h320.7c4.1,0,7.5,3.4,7.5,7.5V197c0,4.1-3.4,7.5-7.5,7.5H97
		c-4.1,0-7.5,3.4-7.5,7.5s3.4,7.5,7.5,7.5h50.6c-0.8,2.3-1.3,4.9-1.3,7.5v99.4c0,2.6,0.5,5.1,1.3,7.5H106v-24
		c0-9.6-7.8-17.4-17.4-17.4H50.3c-9.6,0-17.4,7.8-17.4,17.4v24H22.5C10.1,333.9,0,343.9,0,356.4v99.4c0,12.4,10.1,22.5,22.5,22.5
		h139.9c4.1,0,7.5-3.4,7.5-7.5s-3.4-7.5-7.5-7.5H22.5c-4.1,0-7.5-3.4-7.5-7.5v-99.4c0-4.1,3.4-7.5,7.5-7.5h320.7
		c4.1,0,7.5,3.4,7.5,7.5v99.4c0,4.1-3.4,7.5-7.5,7.5H193c-4.1,0-7.5,3.4-7.5,7.5s3.4,7.5,7.5,7.5h150.2c12.4,0,22.5-10.1,22.5-22.5
		v-99.4c0-2.6-0.5-5.1-1.3-7.5h125.1c12.4,0,22.5-10.1,22.5-22.5V227C512,214.6,501.9,204.5,489.5,204.5z M47.9,75.1V51.2
		c0-1.3,1.1-2.4,2.4-2.4h38.2c1.3,0,2.4,1.1,2.4,2.4v23.9H47.9z M161.3,75.1V51.6c0-1.5,1.3-2.8,2.8-2.8h37.5c1.5,0,2.8,1.3,2.8,2.8
		v23.6H161.3z M274.7,75.1V51.5c0-1.5,1.3-2.7,2.7-2.7H315c1.5,0,2.7,1.2,2.7,2.7v23.6L274.7,75.1L274.7,75.1z M421,180.9
		c0-1.5,1.2-2.7,2.7-2.7h37.6c1.5,0,2.7,1.3,2.7,2.7v23.6H421V180.9z M47.9,333.9v-24c0-1.3,1.1-2.4,2.4-2.4h38.4
		c1.3,0,2.4,1.1,2.4,2.4v24H47.9z M497,326.4c0,4.1-3.4,7.5-7.5,7.5H168.8c-4.1,0-7.5-3.4-7.5-7.5V227c0-4.1,3.4-7.5,7.5-7.5h320.7
		c4.1,0,7.5,3.4,7.5,7.5V326.4z"/>
</g>
</svg>
